<svg width="38" height="44" viewBox="0 0 38 44" fill="none" xmlns="http://www.w3.org/2000/svg">
<path d="M13 19.5H16V13.5H22V19.5H25V10.5L19 6L13 10.5V19.5ZM11 21.5V9.5L19 3.5L27 9.5V21.5H20V15.5H18V21.5H11Z" fill="#D21E6A"/>
<path d="M3.3283 40.5V31.7727H4.38512V35.6591H9.03853V31.7727H10.0953V40.5H9.03853V36.5966H4.38512V40.5H3.3283ZM14.7338 40.6364C14.1429 40.6364 13.6245 40.4957 13.1784 40.2145C12.7353 39.9332 12.3887 39.5398 12.1387 39.0341C11.8915 38.5284 11.7679 37.9375 11.7679 37.2614C11.7679 36.5795 11.8915 35.9844 12.1387 35.4759C12.3887 34.9673 12.7353 34.5724 13.1784 34.2912C13.6245 34.0099 14.1429 33.8693 14.7338 33.8693C15.3248 33.8693 15.8418 34.0099 16.285 34.2912C16.731 34.5724 17.0776 34.9673 17.3248 35.4759C17.5748 35.9844 17.6998 36.5795 17.6998 37.2614C17.6998 37.9375 17.5748 38.5284 17.3248 39.0341C17.0776 39.5398 16.731 39.9332 16.285 40.2145C15.8418 40.4957 15.3248 40.6364 14.7338 40.6364ZM14.7338 39.733C15.1827 39.733 15.552 39.6179 15.8418 39.3878C16.1316 39.1577 16.3461 38.8551 16.4853 38.4801C16.6245 38.1051 16.6941 37.6989 16.6941 37.2614C16.6941 36.8239 16.6245 36.4162 16.4853 36.0384C16.3461 35.6605 16.1316 35.3551 15.8418 35.1222C15.552 34.8892 15.1827 34.7727 14.7338 34.7727C14.285 34.7727 13.9157 34.8892 13.6259 35.1222C13.3361 35.3551 13.1216 35.6605 12.9824 36.0384C12.8432 36.4162 12.7736 36.8239 12.7736 37.2614C12.7736 37.6989 12.8432 38.1051 12.9824 38.4801C13.1216 38.8551 13.3361 39.1577 13.6259 39.3878C13.9157 39.6179 14.285 39.733 14.7338 39.733ZM19.2349 40.5V33.9545H20.2065V34.9773H20.2917C20.4281 34.6278 20.6483 34.3565 20.9522 34.1634C21.2562 33.9673 21.6213 33.8693 22.0474 33.8693C22.4792 33.8693 22.8386 33.9673 23.1255 34.1634C23.4153 34.3565 23.6412 34.6278 23.8031 34.9773H23.8713C24.0389 34.6392 24.2903 34.3707 24.6255 34.1719C24.9608 33.9702 25.3627 33.8693 25.8315 33.8693C26.4167 33.8693 26.8954 34.0526 27.2676 34.419C27.6397 34.7827 27.8258 35.3494 27.8258 36.1193V40.5H26.8201V36.1193C26.8201 35.6364 26.688 35.2912 26.4238 35.0838C26.1596 34.8764 25.8485 34.7727 25.4906 34.7727C25.0304 34.7727 24.6738 34.9119 24.421 35.1903C24.1681 35.4659 24.0417 35.8153 24.0417 36.2386V40.5H23.019V36.017C23.019 35.6449 22.8983 35.3452 22.6568 35.1179C22.4153 34.8878 22.1042 34.7727 21.7235 34.7727C21.4622 34.7727 21.2179 34.8423 20.9906 34.9815C20.7662 35.1207 20.5843 35.3139 20.4451 35.5611C20.3088 35.8054 20.2406 36.0881 20.2406 36.4091V40.5H19.2349ZM32.4089 40.6364C31.7782 40.6364 31.2342 40.4972 30.7768 40.2188C30.3223 39.9375 29.9714 39.5455 29.7243 39.0426C29.4799 38.5369 29.3578 37.9489 29.3578 37.2784C29.3578 36.608 29.4799 36.017 29.7243 35.5057C29.9714 34.9915 30.3152 34.5909 30.7555 34.304C31.1987 34.0142 31.7157 33.8693 32.3066 33.8693C32.6475 33.8693 32.9842 33.9261 33.3166 34.0398C33.649 34.1534 33.9515 34.3381 34.2243 34.5938C34.497 34.8466 34.7143 35.1818 34.8762 35.5994C35.0382 36.017 35.1191 36.5312 35.1191 37.142V37.5682H30.0737V36.6989H34.0964C34.0964 36.3295 34.0225 36 33.8748 35.7102C33.7299 35.4205 33.5225 35.1918 33.2527 35.0241C32.9856 34.8565 32.6703 34.7727 32.3066 34.7727C31.9061 34.7727 31.5595 34.8722 31.2669 35.071C30.9771 35.267 30.7541 35.5227 30.5978 35.8381C30.4416 36.1534 30.3635 36.4915 30.3635 36.8523V37.4318C30.3635 37.9261 30.4487 38.3452 30.6191 38.6889C30.7924 39.0298 31.0325 39.2898 31.3393 39.4688C31.6461 39.6449 32.0027 39.733 32.4089 39.733C32.6731 39.733 32.9118 39.696 33.1248 39.6222C33.3407 39.5455 33.5268 39.4318 33.6831 39.2812C33.8393 39.1278 33.96 38.9375 34.0453 38.7102L35.0169 38.983C34.9146 39.3125 34.7427 39.6023 34.5012 39.8523C34.2598 40.0994 33.9615 40.2926 33.6064 40.4318C33.2512 40.5682 32.8521 40.6364 32.4089 40.6364Z" fill="#D21E6A"/>
</svg>
